<?xml version="1.0" encoding="UTF-8" standalone="no"?><svg xmlns="http://www.w3.org/2000/svg" xmlns:xlink="http://www.w3.org/1999/xlink" contentScriptType="application/ecmascript" contentStyleType="text/css" height="311px" preserveAspectRatio="none" style="width:430px;height:311px;" version="1.1" viewBox="0 0 430 311" width="430px" zoomAndPan="magnify"><defs><filter height="300%" id="f1y10oldmkszi1" width="300%" x="-1" y="-1"><feGaussianBlur result="blurOut" stdDeviation="2.0"/><feColorMatrix in="blurOut" result="blurOut2" type="matrix" values="0 0 0 0 0 0 0 0 0 0 0 0 0 0 0 0 0 0 .4 0"/><feOffset dx="4.0" dy="4.0" in="blurOut2" result="blurOut3"/><feBlend in="SourceGraphic" in2="blurOut3" mode="normal"/></filter></defs><g><!--MD5=[b14aa3529a60505823c7fa67d4fbe949]
entity caddy--><rect fill="#FEFECE" filter="url(#f1y10oldmkszi1)" height="46.2969" style="stroke: #A80036; stroke-width: 1.5;" width="81" x="205" y="8"/><rect fill="#FEFECE" height="10" style="stroke: #A80036; stroke-width: 1.5;" width="15" x="266" y="13"/><rect fill="#FEFECE" height="2" style="stroke: #A80036; stroke-width: 1.5;" width="4" x="264" y="15"/><rect fill="#FEFECE" height="2" style="stroke: #A80036; stroke-width: 1.5;" width="4" x="264" y="19"/><text fill="#000000" font-family="sans-serif" font-size="14" lengthAdjust="spacingAndGlyphs" textLength="41" x="220" y="40.9951">caddy</text><!--MD5=[3a4d72efb1b53e1acbdd1189cccbc328]
entity cloud--><rect fill="#FEFECE" filter="url(#f1y10oldmkszi1)" height="46.2969" style="stroke: #A80036; stroke-width: 1.5;" width="78" x="89.5" y="131"/><rect fill="#FEFECE" height="10" style="stroke: #A80036; stroke-width: 1.5;" width="15" x="147.5" y="136"/><rect fill="#FEFECE" height="2" style="stroke: #A80036; stroke-width: 1.5;" width="4" x="145.5" y="138"/><rect fill="#FEFECE" height="2" style="stroke: #A80036; stroke-width: 1.5;" width="4" x="145.5" y="142"/><text fill="#000000" font-family="sans-serif" font-size="14" lengthAdjust="spacingAndGlyphs" textLength="38" x="104.5" y="163.9951">cloud</text><!--MD5=[ba3787e96f1d5c31790031cf3776da85]
entity cloud-db--><rect fill="#FEFECE" filter="url(#f1y10oldmkszi1)" height="46.2969" style="stroke: #A80036; stroke-width: 1.5;" width="101" x="6" y="254"/><rect fill="#FEFECE" height="10" style="stroke: #A80036; stroke-width: 1.5;" width="15" x="87" y="259"/><rect fill="#FEFECE" height="2" style="stroke: #A80036; stroke-width: 1.5;" width="4" x="85" y="261"/><rect fill="#FEFECE" height="2" style="stroke: #A80036; stroke-width: 1.5;" width="4" x="85" y="265"/><text fill="#000000" font-family="sans-serif" font-size="14" lengthAdjust="spacingAndGlyphs" textLength="61" x="21" y="286.9951">cloud-db</text><!--MD5=[ea7ddd5248251cc22c8ff6c08862a142]
entity cloud-redis--><rect fill="#FEFECE" filter="url(#f1y10oldmkszi1)" height="46.2969" style="stroke: #A80036; stroke-width: 1.5;" width="117" x="142" y="254"/><rect fill="#FEFECE" height="10" style="stroke: #A80036; stroke-width: 1.5;" width="15" x="239" y="259"/><rect fill="#FEFECE" height="2" style="stroke: #A80036; stroke-width: 1.5;" width="4" x="237" y="261"/><rect fill="#FEFECE" height="2" style="stroke: #A80036; stroke-width: 1.5;" width="4" x="237" y="265"/><text fill="#000000" font-family="sans-serif" font-size="14" lengthAdjust="spacingAndGlyphs" textLength="77" x="157" y="286.9951">cloud-redis</text><!--MD5=[6f6ee88b903e9122fbf4126c002fb2d0]
entity hass--><rect fill="#FEFECE" filter="url(#f1y10oldmkszi1)" height="46.2969" style="stroke: #A80036; stroke-width: 1.5;" width="73" x="209" y="131"/><rect fill="#FEFECE" height="10" style="stroke: #A80036; stroke-width: 1.5;" width="15" x="262" y="136"/><rect fill="#FEFECE" height="2" style="stroke: #A80036; stroke-width: 1.5;" width="4" x="260" y="138"/><rect fill="#FEFECE" height="2" style="stroke: #A80036; stroke-width: 1.5;" width="4" x="260" y="142"/><text fill="#000000" font-family="sans-serif" font-size="14" lengthAdjust="spacingAndGlyphs" textLength="33" x="224" y="163.9951">hass</text><!--MD5=[43030a5e48a55402ac9ddc0b9f97953f]
entity portainer--><rect fill="#FEFECE" filter="url(#f1y10oldmkszi1)" height="46.2969" style="stroke: #A80036; stroke-width: 1.5;" width="102" x="317.5" y="131"/><rect fill="#FEFECE" height="10" style="stroke: #A80036; stroke-width: 1.5;" width="15" x="399.5" y="136"/><rect fill="#FEFECE" height="2" style="stroke: #A80036; stroke-width: 1.5;" width="4" x="397.5" y="138"/><rect fill="#FEFECE" height="2" style="stroke: #A80036; stroke-width: 1.5;" width="4" x="397.5" y="142"/><text fill="#000000" font-family="sans-serif" font-size="14" lengthAdjust="spacingAndGlyphs" textLength="62" x="332.5" y="163.9951">portainer</text><!--MD5=[c4a081ef339f2c31615d2de956129622]
link caddy to cloud--><path d="M204.6848,50.0034 C189.3338,58.687 172.6692,70.1536 160.5,84 C149.8939,96.0679 142.1917,112.241 137.0052,126.0012 " fill="none" id="caddy-&gt;cloud" style="stroke: #A80036; stroke-width: 1.0; stroke-dasharray: 7.0,7.0;"/><polygon fill="#A80036" points="135.2075,130.9495,142.0402,123.8563,136.9148,126.25,134.5211,121.1246,135.2075,130.9495" style="stroke: #A80036; stroke-width: 1.0;"/><text fill="#000000" font-family="sans-serif" font-size="13" lengthAdjust="spacingAndGlyphs" textLength="75" x="161.5" y="97.0669">depends on</text><!--MD5=[6b33be5c91ff8d8676e63b0adc0534ba]
link caddy to hass--><path d="M245.5,54.1354 C245.5,74.4937 245.5,104.1907 245.5,125.908 " fill="none" id="caddy-&gt;hass" style="stroke: #A80036; stroke-width: 1.0; stroke-dasharray: 7.0,7.0;"/><polygon fill="#A80036" points="245.5,130.9684,249.5,121.9684,245.5,125.9684,241.5,121.9684,245.5,130.9684" style="stroke: #A80036; stroke-width: 1.0;"/><text fill="#000000" font-family="sans-serif" font-size="13" lengthAdjust="spacingAndGlyphs" textLength="75" x="246.5" y="97.0669">depends on</text><!--MD5=[5a72d451b02aee77c78d3b7225f9f0db]
link caddy to portainer--><path d="M286.1335,51.0936 C300.9947,59.7894 317.1699,70.9781 329.5,84 C341.0154,96.1615 350.3252,112.3656 356.9571,126.1204 " fill="none" id="caddy-&gt;portainer" style="stroke: #A80036; stroke-width: 1.0; stroke-dasharray: 7.0,7.0;"/><polygon fill="#A80036" points="359.1029,130.6819,358.8912,120.8353,356.9744,126.1576,351.6522,124.2408,359.1029,130.6819" style="stroke: #A80036; stroke-width: 1.0;"/><text fill="#000000" font-family="sans-serif" font-size="13" lengthAdjust="spacingAndGlyphs" textLength="75" x="342.5" y="97.0669">depends on</text><!--MD5=[ae4b9396c2b87340065308ca4605cfce]
link cloud to cloud-db--><path d="M103.779,177.1463 C95.5134,185.8827 86.8091,196.3086 80.5,207 C72.8914,219.8935 67.2367,235.5532 63.3337,248.7892 " fill="none" id="cloud-&gt;cloud-db" style="stroke: #A80036; stroke-width: 1.0; stroke-dasharray: 7.0,7.0;"/><polygon fill="#A80036" points="61.8715,253.9199,68.1851,246.3609,63.2419,249.1114,60.4914,244.1682,61.8715,253.9199" style="stroke: #A80036; stroke-width: 1.0;"/><text fill="#000000" font-family="sans-serif" font-size="13" lengthAdjust="spacingAndGlyphs" textLength="75" x="81.5" y="220.0669">depends on</text><!--MD5=[c05751eccb469ecbe544363a996901a2]
link cloud to cloud-redis--><path d="M143.203,177.07 C149.0053,186.3139 155.6658,197.1019 161.5,207 C169.6159,220.7693 178.3023,236.2785 185.4124,249.1925 " fill="none" id="cloud-&gt;cloud-redis" style="stroke: #A80036; stroke-width: 1.0; stroke-dasharray: 7.0,7.0;"/><polygon fill="#A80036" points="187.9566,253.8249,187.1301,244.0108,185.5496,249.4424,180.118,247.8619,187.9566,253.8249" style="stroke: #A80036; stroke-width: 1.0;"/><text fill="#000000" font-family="sans-serif" font-size="13" lengthAdjust="spacingAndGlyphs" textLength="75" x="171.5" y="220.0669">depends on</text><!--MD5=[24c35f272ac8111e1244ae9c3ab66e82]
@startuml
skinparam componentStyle uml2
[caddy]
[cloud]
[cloud-db]
[cloud-redis]
[hass]
[portainer]
[caddy] ..> [cloud] : depends on
[caddy] ..> [hass] : depends on
[caddy] ..> [portainer] : depends on
[cloud] ..> [cloud-db] : depends on
[cloud] ..> [cloud-redis] : depends on

@enduml

PlantUML version 1.2020.06(Sun Apr 05 12:38:32 GMT 2020)
(GPL source distribution)
Java Runtime: OpenJDK Runtime Environment
JVM: OpenJDK 64-Bit Server VM
Java Version: 14-ea+33
Operating System: Linux
Default Encoding: UTF-8
Language: en
Country: US
--></g></svg>