<?xml version="1.0" encoding="UTF-8" standalone="no"?><svg xmlns="http://www.w3.org/2000/svg" xmlns:xlink="http://www.w3.org/1999/xlink" contentScriptType="application/ecmascript" contentStyleType="text/css" height="188px" preserveAspectRatio="none" style="width:347px;height:188px;" version="1.1" viewBox="0 0 347 188" width="347px" zoomAndPan="magnify"><defs><filter height="300%" id="f1nltwko3qekpz" width="300%" x="-1" y="-1"><feGaussianBlur result="blurOut" stdDeviation="2.0"/><feColorMatrix in="blurOut" result="blurOut2" type="matrix" values="0 0 0 0 0 0 0 0 0 0 0 0 0 0 0 0 0 0 .4 0"/><feOffset dx="4.0" dy="4.0" in="blurOut2" result="blurOut3"/><feBlend in="SourceGraphic" in2="blurOut3" mode="normal"/></filter></defs><g><!--MD5=[b14aa3529a60505823c7fa67d4fbe949]
entity caddy--><rect fill="#FEFECE" filter="url(#f1nltwko3qekpz)" height="46.2969" style="stroke: #A80036; stroke-width: 1.5;" width="81" x="121.5" y="8"/><rect fill="#FEFECE" height="10" style="stroke: #A80036; stroke-width: 1.5;" width="15" x="182.5" y="13"/><rect fill="#FEFECE" height="2" style="stroke: #A80036; stroke-width: 1.5;" width="4" x="180.5" y="15"/><rect fill="#FEFECE" height="2" style="stroke: #A80036; stroke-width: 1.5;" width="4" x="180.5" y="19"/><text fill="#000000" font-family="sans-serif" font-size="14" lengthAdjust="spacingAndGlyphs" textLength="41" x="136.5" y="40.9951">caddy</text><!--MD5=[3a4d72efb1b53e1acbdd1189cccbc328]
entity cloud--><rect fill="#FEFECE" filter="url(#f1nltwko3qekpz)" height="46.2969" style="stroke: #A80036; stroke-width: 1.5;" width="78" x="6" y="131"/><rect fill="#FEFECE" height="10" style="stroke: #A80036; stroke-width: 1.5;" width="15" x="64" y="136"/><rect fill="#FEFECE" height="2" style="stroke: #A80036; stroke-width: 1.5;" width="4" x="62" y="138"/><rect fill="#FEFECE" height="2" style="stroke: #A80036; stroke-width: 1.5;" width="4" x="62" y="142"/><text fill="#000000" font-family="sans-serif" font-size="14" lengthAdjust="spacingAndGlyphs" textLength="38" x="21" y="163.9951">cloud</text><!--MD5=[6f6ee88b903e9122fbf4126c002fb2d0]
entity hass--><rect fill="#FEFECE" filter="url(#f1nltwko3qekpz)" height="46.2969" style="stroke: #A80036; stroke-width: 1.5;" width="73" x="125.5" y="131"/><rect fill="#FEFECE" height="10" style="stroke: #A80036; stroke-width: 1.5;" width="15" x="178.5" y="136"/><rect fill="#FEFECE" height="2" style="stroke: #A80036; stroke-width: 1.5;" width="4" x="176.5" y="138"/><rect fill="#FEFECE" height="2" style="stroke: #A80036; stroke-width: 1.5;" width="4" x="176.5" y="142"/><text fill="#000000" font-family="sans-serif" font-size="14" lengthAdjust="spacingAndGlyphs" textLength="33" x="140.5" y="163.9951">hass</text><!--MD5=[43030a5e48a55402ac9ddc0b9f97953f]
entity portainer--><rect fill="#FEFECE" filter="url(#f1nltwko3qekpz)" height="46.2969" style="stroke: #A80036; stroke-width: 1.5;" width="102" x="234" y="131"/><rect fill="#FEFECE" height="10" style="stroke: #A80036; stroke-width: 1.5;" width="15" x="316" y="136"/><rect fill="#FEFECE" height="2" style="stroke: #A80036; stroke-width: 1.5;" width="4" x="314" y="138"/><rect fill="#FEFECE" height="2" style="stroke: #A80036; stroke-width: 1.5;" width="4" x="314" y="142"/><text fill="#000000" font-family="sans-serif" font-size="14" lengthAdjust="spacingAndGlyphs" textLength="62" x="249" y="163.9951">portainer</text><!--MD5=[c4a081ef339f2c31615d2de956129622]
link caddy to cloud--><path d="M121.1848,50.0034 C105.8338,58.687 89.1692,70.1536 77,84 C66.3939,96.0679 58.6917,112.241 53.5052,126.0012 " fill="none" id="caddy-&gt;cloud" style="stroke: #A80036; stroke-width: 1.0; stroke-dasharray: 7.0,7.0;"/><polygon fill="#A80036" points="51.7075,130.9495,58.5402,123.8563,53.4148,126.25,51.0211,121.1246,51.7075,130.9495" style="stroke: #A80036; stroke-width: 1.0;"/><text fill="#000000" font-family="sans-serif" font-size="13" lengthAdjust="spacingAndGlyphs" textLength="75" x="78" y="97.0669">depends on</text><!--MD5=[6b33be5c91ff8d8676e63b0adc0534ba]
link caddy to hass--><path d="M162,54.1354 C162,74.4937 162,104.1907 162,125.908 " fill="none" id="caddy-&gt;hass" style="stroke: #A80036; stroke-width: 1.0; stroke-dasharray: 7.0,7.0;"/><polygon fill="#A80036" points="162,130.9684,166,121.9684,162,125.9684,158,121.9684,162,130.9684" style="stroke: #A80036; stroke-width: 1.0;"/><text fill="#000000" font-family="sans-serif" font-size="13" lengthAdjust="spacingAndGlyphs" textLength="75" x="163" y="97.0669">depends on</text><!--MD5=[5a72d451b02aee77c78d3b7225f9f0db]
link caddy to portainer--><path d="M202.6335,51.0936 C217.4947,59.7894 233.6699,70.9781 246,84 C257.5154,96.1615 266.8252,112.3656 273.4571,126.1204 " fill="none" id="caddy-&gt;portainer" style="stroke: #A80036; stroke-width: 1.0; stroke-dasharray: 7.0,7.0;"/><polygon fill="#A80036" points="275.6029,130.6819,275.3912,120.8353,273.4744,126.1576,268.1522,124.2408,275.6029,130.6819" style="stroke: #A80036; stroke-width: 1.0;"/><text fill="#000000" font-family="sans-serif" font-size="13" lengthAdjust="spacingAndGlyphs" textLength="75" x="259" y="97.0669">depends on</text><!--MD5=[8a1e98dd83499185e6f0adccaadb5fac]
@startuml
skinparam componentStyle uml2
[caddy]
[cloud]
[hass]
[portainer]
[caddy] ..> [cloud] : depends on
[caddy] ..> [hass] : depends on
[caddy] ..> [portainer] : depends on

@enduml

PlantUML version 1.2019.11(Sun Sep 22 10:02:15 GMT 2019)
(GPL source distribution)
Java Runtime: OpenJDK Runtime Environment
JVM: OpenJDK 64-Bit Server VM
Java Version: 14-ea+15
Operating System: Linux
Default Encoding: UTF-8
Language: en
Country: US
--></g></svg>