<?xml version="1.0" encoding="UTF-8" standalone="no"?><svg xmlns="http://www.w3.org/2000/svg" xmlns:xlink="http://www.w3.org/1999/xlink" contentScriptType="application/ecmascript" contentStyleType="text/css" height="311px" preserveAspectRatio="none" style="width:434px;height:311px;" version="1.1" viewBox="0 0 434 311" width="434px" zoomAndPan="magnify"><defs><filter height="300%" id="f113r6c2c2wnrt" width="300%" x="-1" y="-1"><feGaussianBlur result="blurOut" stdDeviation="2.0"/><feColorMatrix in="blurOut" result="blurOut2" type="matrix" values="0 0 0 0 0 0 0 0 0 0 0 0 0 0 0 0 0 0 .4 0"/><feOffset dx="4.0" dy="4.0" in="blurOut2" result="blurOut3"/><feBlend in="SourceGraphic" in2="blurOut3" mode="normal"/></filter></defs><g><!--MD5=[b14aa3529a60505823c7fa67d4fbe949]
entity caddy--><rect fill="#FEFECE" filter="url(#f113r6c2c2wnrt)" height="46.2969" style="stroke: #A80036; stroke-width: 1.5;" width="81" x="125" y="8"/><rect fill="#FEFECE" height="10" style="stroke: #A80036; stroke-width: 1.5;" width="15" x="186" y="13"/><rect fill="#FEFECE" height="2" style="stroke: #A80036; stroke-width: 1.5;" width="4" x="184" y="15"/><rect fill="#FEFECE" height="2" style="stroke: #A80036; stroke-width: 1.5;" width="4" x="184" y="19"/><text fill="#000000" font-family="sans-serif" font-size="14" lengthAdjust="spacingAndGlyphs" textLength="41" x="140" y="40.9951">caddy</text><!--MD5=[473efbf918cdf4cef2f0f49246afb05d]
entity cron-backup--><rect fill="#FEFECE" filter="url(#f113r6c2c2wnrt)" height="46.2969" style="stroke: #A80036; stroke-width: 1.5;" width="127" x="241" y="8"/><rect fill="#FEFECE" height="10" style="stroke: #A80036; stroke-width: 1.5;" width="15" x="348" y="13"/><rect fill="#FEFECE" height="2" style="stroke: #A80036; stroke-width: 1.5;" width="4" x="346" y="15"/><rect fill="#FEFECE" height="2" style="stroke: #A80036; stroke-width: 1.5;" width="4" x="346" y="19"/><text fill="#000000" font-family="sans-serif" font-size="14" lengthAdjust="spacingAndGlyphs" textLength="87" x="256" y="40.9951">cron-backup</text><!--MD5=[6f6ee88b903e9122fbf4126c002fb2d0]
entity hass--><rect fill="#FEFECE" filter="url(#f113r6c2c2wnrt)" height="46.2969" style="stroke: #A80036; stroke-width: 1.5;" width="73" x="6" y="131"/><rect fill="#FEFECE" height="10" style="stroke: #A80036; stroke-width: 1.5;" width="15" x="59" y="136"/><rect fill="#FEFECE" height="2" style="stroke: #A80036; stroke-width: 1.5;" width="4" x="57" y="138"/><rect fill="#FEFECE" height="2" style="stroke: #A80036; stroke-width: 1.5;" width="4" x="57" y="142"/><text fill="#000000" font-family="sans-serif" font-size="14" lengthAdjust="spacingAndGlyphs" textLength="33" x="21" y="163.9951">hass</text><!--MD5=[3a30c7d6d1d1a086eb8963f63816809b]
entity memcached--><rect fill="#FEFECE" filter="url(#f113r6c2c2wnrt)" height="46.2969" style="stroke: #A80036; stroke-width: 1.5;" width="126" x="154.5" y="254"/><rect fill="#FEFECE" height="10" style="stroke: #A80036; stroke-width: 1.5;" width="15" x="260.5" y="259"/><rect fill="#FEFECE" height="2" style="stroke: #A80036; stroke-width: 1.5;" width="4" x="258.5" y="261"/><rect fill="#FEFECE" height="2" style="stroke: #A80036; stroke-width: 1.5;" width="4" x="258.5" y="265"/><text fill="#000000" font-family="sans-serif" font-size="14" lengthAdjust="spacingAndGlyphs" textLength="86" x="169.5" y="286.9951">memcached</text><!--MD5=[43030a5e48a55402ac9ddc0b9f97953f]
entity portainer--><rect fill="#FEFECE" filter="url(#f113r6c2c2wnrt)" height="46.2969" style="stroke: #A80036; stroke-width: 1.5;" width="102" x="114.5" y="131"/><rect fill="#FEFECE" height="10" style="stroke: #A80036; stroke-width: 1.5;" width="15" x="196.5" y="136"/><rect fill="#FEFECE" height="2" style="stroke: #A80036; stroke-width: 1.5;" width="4" x="194.5" y="138"/><rect fill="#FEFECE" height="2" style="stroke: #A80036; stroke-width: 1.5;" width="4" x="194.5" y="142"/><text fill="#000000" font-family="sans-serif" font-size="14" lengthAdjust="spacingAndGlyphs" textLength="62" x="129.5" y="163.9951">portainer</text><!--MD5=[841a9e61397e981cc0fd2ea2b068f8a3]
entity seafile--><rect fill="#FEFECE" filter="url(#f113r6c2c2wnrt)" height="46.2969" style="stroke: #A80036; stroke-width: 1.5;" width="84" x="251.5" y="131"/><rect fill="#FEFECE" height="10" style="stroke: #A80036; stroke-width: 1.5;" width="15" x="315.5" y="136"/><rect fill="#FEFECE" height="2" style="stroke: #A80036; stroke-width: 1.5;" width="4" x="313.5" y="138"/><rect fill="#FEFECE" height="2" style="stroke: #A80036; stroke-width: 1.5;" width="4" x="313.5" y="142"/><text fill="#000000" font-family="sans-serif" font-size="14" lengthAdjust="spacingAndGlyphs" textLength="44" x="266.5" y="163.9951">seafile</text><!--MD5=[0aabcb7293c28efc69263ae3aa1f7e76]
entity seafile-db--><rect fill="#FEFECE" filter="url(#f113r6c2c2wnrt)" height="46.2969" style="stroke: #A80036; stroke-width: 1.5;" width="107" x="316" y="254"/><rect fill="#FEFECE" height="10" style="stroke: #A80036; stroke-width: 1.5;" width="15" x="403" y="259"/><rect fill="#FEFECE" height="2" style="stroke: #A80036; stroke-width: 1.5;" width="4" x="401" y="261"/><rect fill="#FEFECE" height="2" style="stroke: #A80036; stroke-width: 1.5;" width="4" x="401" y="265"/><text fill="#000000" font-family="sans-serif" font-size="14" lengthAdjust="spacingAndGlyphs" textLength="67" x="331" y="286.9951">seafile-db</text><!--MD5=[6b33be5c91ff8d8676e63b0adc0534ba]
link caddy to hass--><path d="M124.7332,50.6895 C109.5661,59.4004 93.0174,70.7054 80.5,84 C69.0028,96.211 59.87,112.5643 53.4421,126.3937 " fill="none" id="caddy-&gt;hass" style="stroke: #A80036; stroke-width: 1.0; stroke-dasharray: 7.0,7.0;"/><polygon fill="#A80036" points="51.3663,130.9773,58.7229,124.429,53.429,126.4226,51.4354,121.1287,51.3663,130.9773" style="stroke: #A80036; stroke-width: 1.0;"/><text fill="#000000" font-family="sans-serif" font-size="13" lengthAdjust="spacingAndGlyphs" textLength="75" x="81.5" y="97.0669">depends on</text><!--MD5=[5a72d451b02aee77c78d3b7225f9f0db]
link caddy to portainer--><path d="M165.5,54.1354 C165.5,74.4937 165.5,104.1907 165.5,125.908 " fill="none" id="caddy-&gt;portainer" style="stroke: #A80036; stroke-width: 1.0; stroke-dasharray: 7.0,7.0;"/><polygon fill="#A80036" points="165.5,130.9684,169.5,121.9684,165.5,125.9684,161.5,121.9684,165.5,130.9684" style="stroke: #A80036; stroke-width: 1.0;"/><text fill="#000000" font-family="sans-serif" font-size="13" lengthAdjust="spacingAndGlyphs" textLength="75" x="166.5" y="97.0669">depends on</text><!--MD5=[b5f660867be461dbc571385222e4acb1]
link caddy to seafile--><path d="M206.0631,52.0965 C220.465,60.7728 236.15,71.6877 248.5,84 C260.8176,96.2801 271.502,112.4913 279.3652,126.2203 " fill="none" id="caddy-&gt;seafile" style="stroke: #A80036; stroke-width: 1.0; stroke-dasharray: 7.0,7.0;"/><polygon fill="#A80036" points="281.922,130.7718,281.0015,120.9661,279.4732,126.4125,274.0267,124.8842,281.922,130.7718" style="stroke: #A80036; stroke-width: 1.0;"/><text fill="#000000" font-family="sans-serif" font-size="13" lengthAdjust="spacingAndGlyphs" textLength="75" x="262.5" y="97.0669">depends on</text><!--MD5=[3b7377f50128c04cd66763b1c3467138]
link seafile to memcached--><path d="M271.9327,177.249 C264.2911,186.1583 255.9881,196.6704 249.5,207 C241.2078,220.202 233.8273,235.9099 228.2498,249.0975 " fill="none" id="seafile-&gt;memcached" style="stroke: #A80036; stroke-width: 1.0; stroke-dasharray: 7.0,7.0;"/><polygon fill="#A80036" points="226.2782,253.8327,233.4305,247.0618,228.2002,249.2169,226.0451,243.9866,226.2782,253.8327" style="stroke: #A80036; stroke-width: 1.0;"/><text fill="#000000" font-family="sans-serif" font-size="13" lengthAdjust="spacingAndGlyphs" textLength="75" x="250.5" y="220.0669">depends on</text><!--MD5=[e44e1427b30e7816f47d6be6f9b7d218]
link seafile to seafile-db--><path d="M310.4116,177.1386 C316.9052,186.2987 324.2522,197.0099 330.5,207 C339.0406,220.6563 347.8333,236.2784 354.9031,249.2947 " fill="none" id="seafile-&gt;seafile-db" style="stroke: #A80036; stroke-width: 1.0; stroke-dasharray: 7.0,7.0;"/><polygon fill="#A80036" points="357.4261,253.9638,356.6663,244.1443,355.049,249.565,349.6283,247.9477,357.4261,253.9638" style="stroke: #A80036; stroke-width: 1.0;"/><text fill="#000000" font-family="sans-serif" font-size="13" lengthAdjust="spacingAndGlyphs" textLength="75" x="341.5" y="220.0669">depends on</text><!--MD5=[03c1ef5f1b7e3ba5e594a91c85c8538b]
@startuml
skinparam componentStyle uml2
[caddy]
[cron-backup]
[hass]
[memcached]
[portainer]
[seafile]
[seafile-db]
[caddy] ..> [hass] : depends on
[caddy] ..> [portainer] : depends on
[caddy] ..> [seafile] : depends on
[seafile] ..> [memcached] : depends on
[seafile] ..> [seafile-db] : depends on

@enduml

PlantUML version 1.2019.11(Sun Sep 22 10:02:15 GMT 2019)
(GPL source distribution)
Java Runtime: OpenJDK Runtime Environment
JVM: OpenJDK 64-Bit Server VM
Java Version: 14-ea+15
Operating System: Linux
Default Encoding: UTF-8
Language: en
Country: US
--></g></svg>