<?xml version="1.0" encoding="UTF-8" standalone="no"?><svg xmlns="http://www.w3.org/2000/svg" xmlns:xlink="http://www.w3.org/1999/xlink" contentStyleType="text/css" height="305px" preserveAspectRatio="none" style="width:278px;height:305px;background:#FFFFFF;" version="1.1" viewBox="0 0 278 305" width="278px" zoomAndPan="magnify"><defs/><g><!--entity caddy--><g id="elem_caddy"><rect fill="#F1F1F1" height="46.2969" rx="2.5" ry="2.5" style="stroke:#181818;stroke-width:0.5;" width="81" x="83" y="7"/><rect fill="#F1F1F1" height="10" style="stroke:#181818;stroke-width:0.5;" width="15" x="144" y="12"/><rect fill="#F1F1F1" height="2" style="stroke:#181818;stroke-width:0.5;" width="4" x="142" y="14"/><rect fill="#F1F1F1" height="2" style="stroke:#181818;stroke-width:0.5;" width="4" x="142" y="18"/><text fill="#000000" font-family="sans-serif" font-size="14" lengthAdjust="spacing" textLength="41" x="98" y="39.9951">caddy</text></g><!--entity cloud--><g id="elem_cloud"><rect fill="#F1F1F1" height="46.2969" rx="2.5" ry="2.5" style="stroke:#181818;stroke-width:0.5;" width="78" x="18.5" y="130"/><rect fill="#F1F1F1" height="10" style="stroke:#181818;stroke-width:0.5;" width="15" x="76.5" y="135"/><rect fill="#F1F1F1" height="2" style="stroke:#181818;stroke-width:0.5;" width="4" x="74.5" y="137"/><rect fill="#F1F1F1" height="2" style="stroke:#181818;stroke-width:0.5;" width="4" x="74.5" y="141"/><text fill="#000000" font-family="sans-serif" font-size="14" lengthAdjust="spacing" textLength="38" x="33.5" y="162.9951">cloud</text></g><!--entity cloud-db--><g id="elem_cloud-db"><rect fill="#F1F1F1" height="46.2969" rx="2.5" ry="2.5" style="stroke:#181818;stroke-width:0.5;" width="101" x="7" y="253"/><rect fill="#F1F1F1" height="10" style="stroke:#181818;stroke-width:0.5;" width="15" x="88" y="258"/><rect fill="#F1F1F1" height="2" style="stroke:#181818;stroke-width:0.5;" width="4" x="86" y="260"/><rect fill="#F1F1F1" height="2" style="stroke:#181818;stroke-width:0.5;" width="4" x="86" y="264"/><text fill="#000000" font-family="sans-serif" font-size="14" lengthAdjust="spacing" textLength="61" x="22" y="285.9951">cloud-db</text></g><!--entity hass--><g id="elem_hass"><rect fill="#F1F1F1" height="46.2969" rx="2.5" ry="2.5" style="stroke:#181818;stroke-width:0.5;" width="73" x="199" y="7"/><rect fill="#F1F1F1" height="10" style="stroke:#181818;stroke-width:0.5;" width="15" x="252" y="12"/><rect fill="#F1F1F1" height="2" style="stroke:#181818;stroke-width:0.5;" width="4" x="250" y="14"/><rect fill="#F1F1F1" height="2" style="stroke:#181818;stroke-width:0.5;" width="4" x="250" y="18"/><text fill="#000000" font-family="sans-serif" font-size="14" lengthAdjust="spacing" textLength="33" x="214" y="39.9951">hass</text></g><!--entity portainer--><g id="elem_portainer"><rect fill="#F1F1F1" height="46.2969" rx="2.5" ry="2.5" style="stroke:#181818;stroke-width:0.5;" width="102" x="131.5" y="130"/><rect fill="#F1F1F1" height="10" style="stroke:#181818;stroke-width:0.5;" width="15" x="213.5" y="135"/><rect fill="#F1F1F1" height="2" style="stroke:#181818;stroke-width:0.5;" width="4" x="211.5" y="137"/><rect fill="#F1F1F1" height="2" style="stroke:#181818;stroke-width:0.5;" width="4" x="211.5" y="141"/><text fill="#000000" font-family="sans-serif" font-size="14" lengthAdjust="spacing" textLength="62" x="146.5" y="162.9951">portainer</text></g><!--link caddy to cloud--><g id="link_caddy_cloud"><path d="M88.9,53.25 C79.04,61.38 69.39,71.46 63.5,83 C57.04,95.67 55.26,111.37 55.23,124.58 " fill="none" id="caddy-to-cloud" style="stroke:#181818;stroke-width:1.0;stroke-dasharray:7.0,7.0;"/><polygon fill="#181818" points="55.3,129.7,59.171,120.6438,55.2286,124.7005,51.1718,120.7581,55.3,129.7" style="stroke:#181818;stroke-width:1.0;"/><text fill="#000000" font-family="sans-serif" font-size="13" lengthAdjust="spacing" textLength="75" x="64.5" y="96.0669">depends on</text></g><!--link caddy to portainer--><g id="link_caddy_portainer"><path d="M134.32,53.19 C144.22,73.49 158.88,103.56 169.43,125.19 " fill="none" id="caddy-to-portainer" style="stroke:#181818;stroke-width:1.0;stroke-dasharray:7.0,7.0;"/><polygon fill="#181818" points="171.75,129.95,171.4159,120.1068,169.5655,125.4525,164.2198,123.602,171.75,129.95" style="stroke:#181818;stroke-width:1.0;"/><text fill="#000000" font-family="sans-serif" font-size="13" lengthAdjust="spacing" textLength="75" x="157.5" y="96.0669">depends on</text></g><!--link cloud to cloud-db--><g id="link_cloud_cloud-db"><path d="M57.5,176.19 C57.5,196.41 57.5,226.31 57.5,247.92 " fill="none" id="cloud-to-cloud-db" style="stroke:#181818;stroke-width:1.0;stroke-dasharray:7.0,7.0;"/><polygon fill="#181818" points="57.5,252.95,61.5,243.95,57.5,247.95,53.5,243.95,57.5,252.95" style="stroke:#181818;stroke-width:1.0;"/><text fill="#000000" font-family="sans-serif" font-size="13" lengthAdjust="spacing" textLength="75" x="58.5" y="219.0669">depends on</text></g><!--SRC=[NOsx3O0m30Lxfl02K51Ii0GbIc6m9H297ULJi3r1W11Kv-BkEMwhU0peO5RdLLZIa7RBa9rjgt56ejqKMitqiAQfd0l6ME0r95o5WtbiQ9eUxW8w8FOi547bAxpXNxhAT-Nyzt4E]--></g></svg>