<?xml version="1.0" encoding="UTF-8" standalone="no"?><svg xmlns="http://www.w3.org/2000/svg" xmlns:xlink="http://www.w3.org/1999/xlink" contentStyleType="text/css" height="305px" preserveAspectRatio="none" style="width:341px;height:305px;background:#FFFFFF;" version="1.1" viewBox="0 0 341 305" width="341px" zoomAndPan="magnify"><defs/><g><!--entity alist--><g id="elem_alist"><rect fill="#F1F1F1" height="46.2969" rx="2.5" ry="2.5" style="stroke:#181818;stroke-width:0.5;" width="67" x="7" y="130"/><rect fill="#F1F1F1" height="10" style="stroke:#181818;stroke-width:0.5;" width="15" x="54" y="135"/><rect fill="#F1F1F1" height="2" style="stroke:#181818;stroke-width:0.5;" width="4" x="52" y="137"/><rect fill="#F1F1F1" height="2" style="stroke:#181818;stroke-width:0.5;" width="4" x="52" y="141"/><text fill="#000000" font-family="sans-serif" font-size="14" lengthAdjust="spacing" textLength="27" x="22" y="162.9951">alist</text></g><!--entity aria2--><g id="elem_aria2"><rect fill="#F1F1F1" height="46.2969" rx="2.5" ry="2.5" style="stroke:#181818;stroke-width:0.5;" width="73" x="62" y="253"/><rect fill="#F1F1F1" height="10" style="stroke:#181818;stroke-width:0.5;" width="15" x="115" y="258"/><rect fill="#F1F1F1" height="2" style="stroke:#181818;stroke-width:0.5;" width="4" x="113" y="260"/><rect fill="#F1F1F1" height="2" style="stroke:#181818;stroke-width:0.5;" width="4" x="113" y="264"/><text fill="#000000" font-family="sans-serif" font-size="14" lengthAdjust="spacing" textLength="33" x="77" y="285.9951">aria2</text></g><!--entity ariang--><g id="elem_ariang"><rect fill="#F1F1F1" height="46.2969" rx="2.5" ry="2.5" style="stroke:#181818;stroke-width:0.5;" width="82" x="116.5" y="130"/><rect fill="#F1F1F1" height="10" style="stroke:#181818;stroke-width:0.5;" width="15" x="178.5" y="135"/><rect fill="#F1F1F1" height="2" style="stroke:#181818;stroke-width:0.5;" width="4" x="176.5" y="137"/><rect fill="#F1F1F1" height="2" style="stroke:#181818;stroke-width:0.5;" width="4" x="176.5" y="141"/><text fill="#000000" font-family="sans-serif" font-size="14" lengthAdjust="spacing" textLength="42" x="131.5" y="162.9951">ariang</text></g><!--entity caddy--><g id="elem_caddy"><rect fill="#F1F1F1" height="46.2969" rx="2.5" ry="2.5" style="stroke:#181818;stroke-width:0.5;" width="81" x="117" y="7"/><rect fill="#F1F1F1" height="10" style="stroke:#181818;stroke-width:0.5;" width="15" x="178" y="12"/><rect fill="#F1F1F1" height="2" style="stroke:#181818;stroke-width:0.5;" width="4" x="176" y="14"/><rect fill="#F1F1F1" height="2" style="stroke:#181818;stroke-width:0.5;" width="4" x="176" y="18"/><text fill="#000000" font-family="sans-serif" font-size="14" lengthAdjust="spacing" textLength="41" x="132" y="39.9951">caddy</text></g><!--entity hass--><g id="elem_hass"><rect fill="#F1F1F1" height="46.2969" rx="2.5" ry="2.5" style="stroke:#181818;stroke-width:0.5;" width="73" x="233" y="7"/><rect fill="#F1F1F1" height="10" style="stroke:#181818;stroke-width:0.5;" width="15" x="286" y="12"/><rect fill="#F1F1F1" height="2" style="stroke:#181818;stroke-width:0.5;" width="4" x="284" y="14"/><rect fill="#F1F1F1" height="2" style="stroke:#181818;stroke-width:0.5;" width="4" x="284" y="18"/><text fill="#000000" font-family="sans-serif" font-size="14" lengthAdjust="spacing" textLength="33" x="248" y="39.9951">hass</text></g><!--entity portainer--><g id="elem_portainer"><rect fill="#F1F1F1" height="46.2969" rx="2.5" ry="2.5" style="stroke:#181818;stroke-width:0.5;" width="102" x="233.5" y="130"/><rect fill="#F1F1F1" height="10" style="stroke:#181818;stroke-width:0.5;" width="15" x="315.5" y="135"/><rect fill="#F1F1F1" height="2" style="stroke:#181818;stroke-width:0.5;" width="4" x="313.5" y="137"/><rect fill="#F1F1F1" height="2" style="stroke:#181818;stroke-width:0.5;" width="4" x="313.5" y="141"/><text fill="#000000" font-family="sans-serif" font-size="14" lengthAdjust="spacing" textLength="62" x="248.5" y="162.9951">portainer</text></g><!--link alist to aria2--><g id="link_alist_aria2"><path d="M34.52,176.14 C31.9,190.19 30.77,208.41 37.5,223 C42.16,233.1 49.86,241.96 58.24,249.37 " fill="none" id="alist-to-aria2" style="stroke:#181818;stroke-width:1.0;stroke-dasharray:7.0,7.0;"/><polygon fill="#181818" points="62.4,252.89,58.1148,244.0223,58.5836,249.6596,52.9462,250.1285,62.4,252.89" style="stroke:#181818;stroke-width:1.0;"/><text fill="#000000" font-family="sans-serif" font-size="13" lengthAdjust="spacing" textLength="75" x="38.5" y="219.0669">depends on</text></g><!--link ariang to aria2--><g id="link_ariang_aria2"><path d="M146.68,176.19 C136.78,196.49 122.12,226.56 111.57,248.19 " fill="none" id="ariang-to-aria2" style="stroke:#181818;stroke-width:1.0;stroke-dasharray:7.0,7.0;"/><polygon fill="#181818" points="109.25,252.95,116.7802,246.602,111.4345,248.4525,109.5841,243.1068,109.25,252.95" style="stroke:#181818;stroke-width:1.0;"/><text fill="#000000" font-family="sans-serif" font-size="13" lengthAdjust="spacing" textLength="75" x="132.5" y="219.0669">depends on</text></g><!--link caddy to alist--><g id="link_caddy_alist"><path d="M116.72,49.54 C101.37,58.04 84.7,69.31 72.5,83 C61.78,95.03 54.01,111.26 48.81,124.97 " fill="none" id="caddy-to-alist" style="stroke:#181818;stroke-width:1.0;stroke-dasharray:7.0,7.0;"/><polygon fill="#181818" points="47.01,129.89,53.8587,122.8122,48.7279,125.1944,46.3457,120.0636,47.01,129.89" style="stroke:#181818;stroke-width:1.0;"/><text fill="#000000" font-family="sans-serif" font-size="13" lengthAdjust="spacing" textLength="75" x="73.5" y="96.0669">depends on</text></g><!--link caddy to ariang--><g id="link_caddy_ariang"><path d="M157.5,53.19 C157.5,73.41 157.5,103.31 157.5,124.92 " fill="none" id="caddy-to-ariang" style="stroke:#181818;stroke-width:1.0;stroke-dasharray:7.0,7.0;"/><polygon fill="#181818" points="157.5,129.95,161.5,120.95,157.5,124.95,153.5,120.95,157.5,129.95" style="stroke:#181818;stroke-width:1.0;"/><text fill="#000000" font-family="sans-serif" font-size="13" lengthAdjust="spacing" textLength="75" x="158.5" y="96.0669">depends on</text></g><!--link caddy to portainer--><g id="link_caddy_portainer"><path d="M198.37,50.76 C213.38,59.29 229.79,70.26 242.5,83 C254.69,95.22 264.87,111.64 272.15,125.4 " fill="none" id="caddy-to-portainer" style="stroke:#181818;stroke-width:1.0;stroke-dasharray:7.0,7.0;"/><polygon fill="#181818" points="274.51,129.95,273.9117,120.1193,272.2055,125.5127,266.8121,123.8065,274.51,129.95" style="stroke:#181818;stroke-width:1.0;"/><text fill="#000000" font-family="sans-serif" font-size="13" lengthAdjust="spacing" textLength="75" x="257.5" y="96.0669">depends on</text></g><!--SRC=[VOun3e0W34LtJz4JE3WwU0b7uz10eqGeXEB0xIKHDGuwlGxllrGsmm4ZEb3U1S_4QKpP4kpETis4raYQ2wF1hfANSYZKEXUkA58GV4necE9yRQ1j1wWxw45J8DO2dk_8Zt7Mgt3cVeIQ-pQUxrxI0G00]--></g></svg>