<?xml version="1.0" encoding="UTF-8" standalone="no"?><svg xmlns="http://www.w3.org/2000/svg" xmlns:xlink="http://www.w3.org/1999/xlink" contentStyleType="text/css" height="428px" preserveAspectRatio="none" style="width:364px;height:428px;background:#FFFFFF;" version="1.1" viewBox="0 0 364 428" width="364px" zoomAndPan="magnify"><defs/><g><!--entity alist--><g id="elem_alist"><rect fill="#F1F1F1" height="46.2969" rx="2.5" ry="2.5" style="stroke:#181818;stroke-width:0.5;" width="67" x="7" y="130"/><rect fill="#F1F1F1" height="10" style="stroke:#181818;stroke-width:0.5;" width="15" x="54" y="135"/><rect fill="#F1F1F1" height="2" style="stroke:#181818;stroke-width:0.5;" width="4" x="52" y="137"/><rect fill="#F1F1F1" height="2" style="stroke:#181818;stroke-width:0.5;" width="4" x="52" y="141"/><text fill="#000000" font-family="sans-serif" font-size="14" lengthAdjust="spacing" textLength="27" x="22" y="162.9951">alist</text></g><!--entity aria2--><g id="elem_aria2"><rect fill="#F1F1F1" height="46.2969" rx="2.5" ry="2.5" style="stroke:#181818;stroke-width:0.5;" width="73" x="56" y="376"/><rect fill="#F1F1F1" height="10" style="stroke:#181818;stroke-width:0.5;" width="15" x="109" y="381"/><rect fill="#F1F1F1" height="2" style="stroke:#181818;stroke-width:0.5;" width="4" x="107" y="383"/><rect fill="#F1F1F1" height="2" style="stroke:#181818;stroke-width:0.5;" width="4" x="107" y="387"/><text fill="#000000" font-family="sans-serif" font-size="14" lengthAdjust="spacing" textLength="33" x="71" y="408.9951">aria2</text></g><!--entity ariang--><g id="elem_ariang"><rect fill="#F1F1F1" height="46.2969" rx="2.5" ry="2.5" style="stroke:#181818;stroke-width:0.5;" width="82" x="51.5" y="253"/><rect fill="#F1F1F1" height="10" style="stroke:#181818;stroke-width:0.5;" width="15" x="113.5" y="258"/><rect fill="#F1F1F1" height="2" style="stroke:#181818;stroke-width:0.5;" width="4" x="111.5" y="260"/><rect fill="#F1F1F1" height="2" style="stroke:#181818;stroke-width:0.5;" width="4" x="111.5" y="264"/><text fill="#000000" font-family="sans-serif" font-size="14" lengthAdjust="spacing" textLength="42" x="66.5" y="285.9951">ariang</text></g><!--entity caddy--><g id="elem_caddy"><rect fill="#F1F1F1" height="46.2969" rx="2.5" ry="2.5" style="stroke:#181818;stroke-width:0.5;" width="81" x="104" y="7"/><rect fill="#F1F1F1" height="10" style="stroke:#181818;stroke-width:0.5;" width="15" x="165" y="12"/><rect fill="#F1F1F1" height="2" style="stroke:#181818;stroke-width:0.5;" width="4" x="163" y="14"/><rect fill="#F1F1F1" height="2" style="stroke:#181818;stroke-width:0.5;" width="4" x="163" y="18"/><text fill="#000000" font-family="sans-serif" font-size="14" lengthAdjust="spacing" textLength="41" x="119" y="39.9951">caddy</text></g><!--entity hass--><g id="elem_hass"><rect fill="#F1F1F1" height="46.2969" rx="2.5" ry="2.5" style="stroke:#181818;stroke-width:0.5;" width="73" x="220" y="7"/><rect fill="#F1F1F1" height="10" style="stroke:#181818;stroke-width:0.5;" width="15" x="273" y="12"/><rect fill="#F1F1F1" height="2" style="stroke:#181818;stroke-width:0.5;" width="4" x="271" y="14"/><rect fill="#F1F1F1" height="2" style="stroke:#181818;stroke-width:0.5;" width="4" x="271" y="18"/><text fill="#000000" font-family="sans-serif" font-size="14" lengthAdjust="spacing" textLength="33" x="235" y="39.9951">hass</text></g><!--entity portainer--><g id="elem_portainer"><rect fill="#F1F1F1" height="46.2969" rx="2.5" ry="2.5" style="stroke:#181818;stroke-width:0.5;" width="102" x="256.5" y="130"/><rect fill="#F1F1F1" height="10" style="stroke:#181818;stroke-width:0.5;" width="15" x="338.5" y="135"/><rect fill="#F1F1F1" height="2" style="stroke:#181818;stroke-width:0.5;" width="4" x="336.5" y="137"/><rect fill="#F1F1F1" height="2" style="stroke:#181818;stroke-width:0.5;" width="4" x="336.5" y="141"/><text fill="#000000" font-family="sans-serif" font-size="14" lengthAdjust="spacing" textLength="62" x="271.5" y="162.9951">portainer</text></g><!--link alist to ariang--><g id="link_alist_ariang"><path d="M36.72,176.29 C35.34,190.24 35.37,208.29 41.5,223 C45.56,232.73 52.38,241.64 59.74,249.22 " fill="none" id="alist-to-ariang" style="stroke:#181818;stroke-width:1.0;stroke-dasharray:7.0,7.0;"/><polygon fill="#181818" points="63.38,252.84,59.8073,243.662,59.8302,249.3188,54.1734,249.3417,63.38,252.84" style="stroke:#181818;stroke-width:1.0;"/><text fill="#000000" font-family="sans-serif" font-size="13" lengthAdjust="spacing" textLength="75" x="42.5" y="219.0669">depends on</text></g><!--link ariang to aria2--><g id="link_ariang_aria2"><path d="M92.5,299.19 C92.5,319.41 92.5,349.31 92.5,370.92 " fill="none" id="ariang-to-aria2" style="stroke:#181818;stroke-width:1.0;stroke-dasharray:7.0,7.0;"/><polygon fill="#181818" points="92.5,375.95,96.5,366.95,92.5,370.95,88.5,366.95,92.5,375.95" style="stroke:#181818;stroke-width:1.0;"/><text fill="#000000" font-family="sans-serif" font-size="13" lengthAdjust="spacing" textLength="75" x="93.5" y="342.0669">depends on</text></g><!--link caddy to alist--><g id="link_caddy_alist"><path d="M103.98,40.43 C81.45,47.96 55.25,61.01 41.5,83 C33.87,95.2 33.18,111.13 34.59,124.61 " fill="none" id="caddy-to-alist" style="stroke:#181818;stroke-width:1.0;stroke-dasharray:7.0,7.0;"/><polygon fill="#181818" points="35.26,129.84,38.0961,120.4083,34.631,124.8797,30.1596,121.4147,35.26,129.84" style="stroke:#181818;stroke-width:1.0;"/><text fill="#000000" font-family="sans-serif" font-size="13" lengthAdjust="spacing" textLength="75" x="42.5" y="96.0669">depends on</text></g><!--link caddy to ariang--><g id="link_caddy_ariang"><path d="M144.85,53.22 C144.79,89.64 142,163.9 122.5,223 C119.61,231.77 115.12,240.7 110.5,248.62 " fill="none" id="caddy-to-ariang" style="stroke:#181818;stroke-width:1.0;stroke-dasharray:7.0,7.0;"/><polygon fill="#181818" points="107.92,252.91,115.9804,247.2505,110.4925,248.6225,109.1205,243.1346,107.92,252.91" style="stroke:#181818;stroke-width:1.0;"/><text fill="#000000" font-family="sans-serif" font-size="13" lengthAdjust="spacing" textLength="75" x="142.5" y="157.5669">depends on</text></g><!--link caddy to portainer--><g id="link_caddy_portainer"><path d="M174.4,53.19 C202.43,74 244.3,105.08 273.57,126.81 " fill="none" id="caddy-to-portainer" style="stroke:#181818;stroke-width:1.0;stroke-dasharray:7.0,7.0;"/><polygon fill="#181818" points="277.79,129.95,272.9557,121.3693,273.778,126.966,268.1813,127.7884,277.79,129.95" style="stroke:#181818;stroke-width:1.0;"/><text fill="#000000" font-family="sans-serif" font-size="13" lengthAdjust="spacing" textLength="75" x="236.5" y="96.0669">depends on</text></g><!--SRC=[VOux3e0W341tJz4JE30wU0b7uz18eqGeXEBWxINnRupJw_3wMfaC1upeeFSkU2PEJLeimUoiAbgqHbAN6GsgdJpaeKUjbymHHJA2ZmaDK-oE7IZB6WuVAj0KYBM0vxDoAUfjRFbTs7e_mkUHkt6zzv1M]--></g></svg>