<?xml version="1.0" encoding="UTF-8" standalone="no"?><svg xmlns="http://www.w3.org/2000/svg" xmlns:xlink="http://www.w3.org/1999/xlink" contentScriptType="application/ecmascript" contentStyleType="text/css" height="311px" preserveAspectRatio="none" style="width:377px;height:311px;" version="1.1" viewBox="0 0 377 311" width="377px" zoomAndPan="magnify"><defs><filter height="300%" id="fsetm9rfmgv04" width="300%" x="-1" y="-1"><feGaussianBlur result="blurOut" stdDeviation="2.0"/><feColorMatrix in="blurOut" result="blurOut2" type="matrix" values="0 0 0 0 0 0 0 0 0 0 0 0 0 0 0 0 0 0 .4 0"/><feOffset dx="4.0" dy="4.0" in="blurOut2" result="blurOut3"/><feBlend in="SourceGraphic" in2="blurOut3" mode="normal"/></filter></defs><g><!--MD5=[b14aa3529a60505823c7fa67d4fbe949]
entity caddy--><rect fill="#FEFECE" filter="url(#fsetm9rfmgv04)" height="46.2969" style="stroke: #A80036; stroke-width: 1.5;" width="81" x="133" y="8"/><rect fill="#FEFECE" height="10" style="stroke: #A80036; stroke-width: 1.5;" width="15" x="194" y="13"/><rect fill="#FEFECE" height="2" style="stroke: #A80036; stroke-width: 1.5;" width="4" x="192" y="15"/><rect fill="#FEFECE" height="2" style="stroke: #A80036; stroke-width: 1.5;" width="4" x="192" y="19"/><text fill="#000000" font-family="sans-serif" font-size="14" lengthAdjust="spacingAndGlyphs" textLength="41" x="148" y="40.9951">caddy</text><!--MD5=[3a4d72efb1b53e1acbdd1189cccbc328]
entity cloud--><rect fill="#FEFECE" filter="url(#fsetm9rfmgv04)" height="46.2969" style="stroke: #A80036; stroke-width: 1.5;" width="78" x="17.5" y="131"/><rect fill="#FEFECE" height="10" style="stroke: #A80036; stroke-width: 1.5;" width="15" x="75.5" y="136"/><rect fill="#FEFECE" height="2" style="stroke: #A80036; stroke-width: 1.5;" width="4" x="73.5" y="138"/><rect fill="#FEFECE" height="2" style="stroke: #A80036; stroke-width: 1.5;" width="4" x="73.5" y="142"/><text fill="#000000" font-family="sans-serif" font-size="14" lengthAdjust="spacingAndGlyphs" textLength="38" x="32.5" y="163.9951">cloud</text><!--MD5=[ba3787e96f1d5c31790031cf3776da85]
entity cloud-db--><rect fill="#FEFECE" filter="url(#fsetm9rfmgv04)" height="46.2969" style="stroke: #A80036; stroke-width: 1.5;" width="101" x="6" y="254"/><rect fill="#FEFECE" height="10" style="stroke: #A80036; stroke-width: 1.5;" width="15" x="87" y="259"/><rect fill="#FEFECE" height="2" style="stroke: #A80036; stroke-width: 1.5;" width="4" x="85" y="261"/><rect fill="#FEFECE" height="2" style="stroke: #A80036; stroke-width: 1.5;" width="4" x="85" y="265"/><text fill="#000000" font-family="sans-serif" font-size="14" lengthAdjust="spacingAndGlyphs" textLength="61" x="21" y="286.9951">cloud-db</text><!--MD5=[ea7ddd5248251cc22c8ff6c08862a142]
entity cloud-redis--><rect fill="#FEFECE" filter="url(#fsetm9rfmgv04)" height="46.2969" style="stroke: #A80036; stroke-width: 1.5;" width="117" x="249" y="8"/><rect fill="#FEFECE" height="10" style="stroke: #A80036; stroke-width: 1.5;" width="15" x="346" y="13"/><rect fill="#FEFECE" height="2" style="stroke: #A80036; stroke-width: 1.5;" width="4" x="344" y="15"/><rect fill="#FEFECE" height="2" style="stroke: #A80036; stroke-width: 1.5;" width="4" x="344" y="19"/><text fill="#000000" font-family="sans-serif" font-size="14" lengthAdjust="spacingAndGlyphs" textLength="77" x="264" y="40.9951">cloud-redis</text><!--MD5=[6f6ee88b903e9122fbf4126c002fb2d0]
entity hass--><rect fill="#FEFECE" filter="url(#fsetm9rfmgv04)" height="46.2969" style="stroke: #A80036; stroke-width: 1.5;" width="73" x="137" y="131"/><rect fill="#FEFECE" height="10" style="stroke: #A80036; stroke-width: 1.5;" width="15" x="190" y="136"/><rect fill="#FEFECE" height="2" style="stroke: #A80036; stroke-width: 1.5;" width="4" x="188" y="138"/><rect fill="#FEFECE" height="2" style="stroke: #A80036; stroke-width: 1.5;" width="4" x="188" y="142"/><text fill="#000000" font-family="sans-serif" font-size="14" lengthAdjust="spacingAndGlyphs" textLength="33" x="152" y="163.9951">hass</text><!--MD5=[43030a5e48a55402ac9ddc0b9f97953f]
entity portainer--><rect fill="#FEFECE" filter="url(#fsetm9rfmgv04)" height="46.2969" style="stroke: #A80036; stroke-width: 1.5;" width="102" x="245.5" y="131"/><rect fill="#FEFECE" height="10" style="stroke: #A80036; stroke-width: 1.5;" width="15" x="327.5" y="136"/><rect fill="#FEFECE" height="2" style="stroke: #A80036; stroke-width: 1.5;" width="4" x="325.5" y="138"/><rect fill="#FEFECE" height="2" style="stroke: #A80036; stroke-width: 1.5;" width="4" x="325.5" y="142"/><text fill="#000000" font-family="sans-serif" font-size="14" lengthAdjust="spacingAndGlyphs" textLength="62" x="260.5" y="163.9951">portainer</text><!--MD5=[c4a081ef339f2c31615d2de956129622]
link caddy to cloud--><path d="M132.6848,50.0034 C117.3338,58.687 100.6692,70.1536 88.5,84 C77.8939,96.0679 70.1917,112.241 65.0052,126.0012 " fill="none" id="caddy-&gt;cloud" style="stroke: #A80036; stroke-width: 1.0; stroke-dasharray: 7.0,7.0;"/><polygon fill="#A80036" points="63.2075,130.9495,70.0402,123.8563,64.9148,126.25,62.5211,121.1246,63.2075,130.9495" style="stroke: #A80036; stroke-width: 1.0;"/><text fill="#000000" font-family="sans-serif" font-size="13" lengthAdjust="spacingAndGlyphs" textLength="75" x="89.5" y="97.0669">depends on</text><!--MD5=[6b33be5c91ff8d8676e63b0adc0534ba]
link caddy to hass--><path d="M173.5,54.1354 C173.5,74.4937 173.5,104.1907 173.5,125.908 " fill="none" id="caddy-&gt;hass" style="stroke: #A80036; stroke-width: 1.0; stroke-dasharray: 7.0,7.0;"/><polygon fill="#A80036" points="173.5,130.9684,177.5,121.9684,173.5,125.9684,169.5,121.9684,173.5,130.9684" style="stroke: #A80036; stroke-width: 1.0;"/><text fill="#000000" font-family="sans-serif" font-size="13" lengthAdjust="spacingAndGlyphs" textLength="75" x="174.5" y="97.0669">depends on</text><!--MD5=[5a72d451b02aee77c78d3b7225f9f0db]
link caddy to portainer--><path d="M214.1335,51.0936 C228.9947,59.7894 245.1699,70.9781 257.5,84 C269.0154,96.1615 278.3252,112.3656 284.9571,126.1204 " fill="none" id="caddy-&gt;portainer" style="stroke: #A80036; stroke-width: 1.0; stroke-dasharray: 7.0,7.0;"/><polygon fill="#A80036" points="287.1029,130.6819,286.8912,120.8353,284.9744,126.1576,279.6522,124.2408,287.1029,130.6819" style="stroke: #A80036; stroke-width: 1.0;"/><text fill="#000000" font-family="sans-serif" font-size="13" lengthAdjust="spacingAndGlyphs" textLength="75" x="270.5" y="97.0669">depends on</text><!--MD5=[ae4b9396c2b87340065308ca4605cfce]
link cloud to cloud-db--><path d="M56.5,177.1354 C56.5,197.4937 56.5,227.1907 56.5,248.908 " fill="none" id="cloud-&gt;cloud-db" style="stroke: #A80036; stroke-width: 1.0; stroke-dasharray: 7.0,7.0;"/><polygon fill="#A80036" points="56.5,253.9684,60.5,244.9684,56.5,248.9684,52.5,244.9684,56.5,253.9684" style="stroke: #A80036; stroke-width: 1.0;"/><text fill="#000000" font-family="sans-serif" font-size="13" lengthAdjust="spacingAndGlyphs" textLength="75" x="57.5" y="220.0669">depends on</text><!--MD5=[d8303ad17ffb440ab3e167c4ff8d7dbc]
@startuml
skinparam componentStyle uml2
[caddy]
[cloud]
[cloud-db]
[cloud-redis]
[hass]
[portainer]
[caddy] ..> [cloud] : depends on
[caddy] ..> [hass] : depends on
[caddy] ..> [portainer] : depends on
[cloud] ..> [cloud-db] : depends on

@enduml

PlantUML version 1.2019.11(Sun Sep 22 10:02:15 GMT 2019)
(GPL source distribution)
Java Runtime: OpenJDK Runtime Environment
JVM: OpenJDK 64-Bit Server VM
Java Version: 14-ea+15
Operating System: Linux
Default Encoding: UTF-8
Language: en
Country: US
--></g></svg>