<?xml version="1.0" encoding="UTF-8" standalone="no"?><svg xmlns="http://www.w3.org/2000/svg" xmlns:xlink="http://www.w3.org/1999/xlink" contentScriptType="application/ecmascript" contentStyleType="text/css" height="311px" preserveAspectRatio="none" style="width:369px;height:311px;" version="1.1" viewBox="0 0 369 311" width="369px" zoomAndPan="magnify"><defs><filter height="300%" id="fgonhq7nfo5mn" width="300%" x="-1" y="-1"><feGaussianBlur result="blurOut" stdDeviation="2.0"/><feColorMatrix in="blurOut" result="blurOut2" type="matrix" values="0 0 0 0 0 0 0 0 0 0 0 0 0 0 0 0 0 0 .4 0"/><feOffset dx="4.0" dy="4.0" in="blurOut2" result="blurOut3"/><feBlend in="SourceGraphic" in2="blurOut3" mode="normal"/></filter></defs><g><!--MD5=[b14aa3529a60505823c7fa67d4fbe949]
entity caddy--><rect fill="#FEFECE" filter="url(#fgonhq7nfo5mn)" height="46.2969" style="stroke: #A80036; stroke-width: 1.5;" width="81" x="127" y="8"/><rect fill="#FEFECE" height="10" style="stroke: #A80036; stroke-width: 1.5;" width="15" x="188" y="13"/><rect fill="#FEFECE" height="2" style="stroke: #A80036; stroke-width: 1.5;" width="4" x="186" y="15"/><rect fill="#FEFECE" height="2" style="stroke: #A80036; stroke-width: 1.5;" width="4" x="186" y="19"/><text fill="#000000" font-family="sans-serif" font-size="14" lengthAdjust="spacingAndGlyphs" textLength="41" x="142" y="40.9951">caddy</text><!--MD5=[6f6ee88b903e9122fbf4126c002fb2d0]
entity hass--><rect fill="#FEFECE" filter="url(#fgonhq7nfo5mn)" height="46.2969" style="stroke: #A80036; stroke-width: 1.5;" width="73" x="6" y="131"/><rect fill="#FEFECE" height="10" style="stroke: #A80036; stroke-width: 1.5;" width="15" x="59" y="136"/><rect fill="#FEFECE" height="2" style="stroke: #A80036; stroke-width: 1.5;" width="4" x="57" y="138"/><rect fill="#FEFECE" height="2" style="stroke: #A80036; stroke-width: 1.5;" width="4" x="57" y="142"/><text fill="#000000" font-family="sans-serif" font-size="14" lengthAdjust="spacingAndGlyphs" textLength="33" x="21" y="163.9951">hass</text><!--MD5=[0ea7c31bd3742d759de2cfcb6e96c582]
entity owncloud--><rect fill="#FEFECE" filter="url(#fgonhq7nfo5mn)" height="46.2969" style="stroke: #A80036; stroke-width: 1.5;" width="107" x="114" y="131"/><rect fill="#FEFECE" height="10" style="stroke: #A80036; stroke-width: 1.5;" width="15" x="201" y="136"/><rect fill="#FEFECE" height="2" style="stroke: #A80036; stroke-width: 1.5;" width="4" x="199" y="138"/><rect fill="#FEFECE" height="2" style="stroke: #A80036; stroke-width: 1.5;" width="4" x="199" y="142"/><text fill="#000000" font-family="sans-serif" font-size="14" lengthAdjust="spacingAndGlyphs" textLength="67" x="129" y="163.9951">owncloud</text><!--MD5=[90a028ea0e50f04713aea78fd96bea78]
entity owncloud-db--><rect fill="#FEFECE" filter="url(#fgonhq7nfo5mn)" height="46.2969" style="stroke: #A80036; stroke-width: 1.5;" width="130" x="16.5" y="254"/><rect fill="#FEFECE" height="10" style="stroke: #A80036; stroke-width: 1.5;" width="15" x="126.5" y="259"/><rect fill="#FEFECE" height="2" style="stroke: #A80036; stroke-width: 1.5;" width="4" x="124.5" y="261"/><rect fill="#FEFECE" height="2" style="stroke: #A80036; stroke-width: 1.5;" width="4" x="124.5" y="265"/><text fill="#000000" font-family="sans-serif" font-size="14" lengthAdjust="spacingAndGlyphs" textLength="90" x="31.5" y="286.9951">owncloud-db</text><!--MD5=[7303ecb5fb33b505e40d2d5ae1c66c41]
entity owncloud-redis--><rect fill="#FEFECE" filter="url(#fgonhq7nfo5mn)" height="46.2969" style="stroke: #A80036; stroke-width: 1.5;" width="146" x="181.5" y="254"/><rect fill="#FEFECE" height="10" style="stroke: #A80036; stroke-width: 1.5;" width="15" x="307.5" y="259"/><rect fill="#FEFECE" height="2" style="stroke: #A80036; stroke-width: 1.5;" width="4" x="305.5" y="261"/><rect fill="#FEFECE" height="2" style="stroke: #A80036; stroke-width: 1.5;" width="4" x="305.5" y="265"/><text fill="#000000" font-family="sans-serif" font-size="14" lengthAdjust="spacingAndGlyphs" textLength="106" x="196.5" y="286.9951">owncloud-redis</text><!--MD5=[43030a5e48a55402ac9ddc0b9f97953f]
entity portainer--><rect fill="#FEFECE" filter="url(#fgonhq7nfo5mn)" height="46.2969" style="stroke: #A80036; stroke-width: 1.5;" width="102" x="256.5" y="131"/><rect fill="#FEFECE" height="10" style="stroke: #A80036; stroke-width: 1.5;" width="15" x="338.5" y="136"/><rect fill="#FEFECE" height="2" style="stroke: #A80036; stroke-width: 1.5;" width="4" x="336.5" y="138"/><rect fill="#FEFECE" height="2" style="stroke: #A80036; stroke-width: 1.5;" width="4" x="336.5" y="142"/><text fill="#000000" font-family="sans-serif" font-size="14" lengthAdjust="spacingAndGlyphs" textLength="62" x="271.5" y="163.9951">portainer</text><!--MD5=[6b33be5c91ff8d8676e63b0adc0534ba]
link caddy to hass--><path d="M126.8837,50.8328 C111.7362,59.5624 95.1616,70.8427 82.5,84 C70.7282,96.2326 61.1322,112.5871 54.2926,126.4117 " fill="none" id="caddy-&gt;hass" style="stroke: #A80036; stroke-width: 1.0; stroke-dasharray: 7.0,7.0;"/><polygon fill="#A80036" points="52.0796,130.9935,59.5958,124.6291,54.2543,126.4912,52.3921,121.1496,52.0796,130.9935" style="stroke: #A80036; stroke-width: 1.0;"/><text fill="#000000" font-family="sans-serif" font-size="13" lengthAdjust="spacingAndGlyphs" textLength="75" x="83.5" y="97.0669">depends on</text><!--MD5=[11c54fc440bbba0001f4ab42f0b70afc]
link caddy to owncloud--><path d="M167.5,54.1354 C167.5,74.4937 167.5,104.1907 167.5,125.908 " fill="none" id="caddy-&gt;owncloud" style="stroke: #A80036; stroke-width: 1.0; stroke-dasharray: 7.0,7.0;"/><polygon fill="#A80036" points="167.5,130.9684,171.5,121.9684,167.5,125.9684,163.5,121.9684,167.5,130.9684" style="stroke: #A80036; stroke-width: 1.0;"/><text fill="#000000" font-family="sans-serif" font-size="13" lengthAdjust="spacingAndGlyphs" textLength="75" x="168.5" y="97.0669">depends on</text><!--MD5=[5a72d451b02aee77c78d3b7225f9f0db]
link caddy to portainer--><path d="M208.0048,52.3478 C222.8023,61.1232 239.1664,72.039 252.5,84 C266.471,96.5327 279.5635,112.9268 289.4672,126.6988 " fill="none" id="caddy-&gt;portainer" style="stroke: #A80036; stroke-width: 1.0; stroke-dasharray: 7.0,7.0;"/><polygon fill="#A80036" points="292.4358,130.8815,290.4886,121.2271,289.5418,126.8041,283.9648,125.8574,292.4358,130.8815" style="stroke: #A80036; stroke-width: 1.0;"/><text fill="#000000" font-family="sans-serif" font-size="13" lengthAdjust="spacingAndGlyphs" textLength="75" x="269.5" y="97.0669">depends on</text><!--MD5=[76b19985e0dfbdf5f58535a0fd93b097]
link owncloud to owncloud-db--><path d="M151.3241,177.1354 C136.9096,197.7514 115.7993,227.944 100.5676,249.7288 " fill="none" id="owncloud-&gt;owncloud-db" style="stroke: #A80036; stroke-width: 1.0; stroke-dasharray: 7.0,7.0;"/><polygon fill="#A80036" points="97.6034,253.9684,106.0388,248.8847,100.4685,249.8707,99.4825,244.3005,97.6034,253.9684" style="stroke: #A80036; stroke-width: 1.0;"/><text fill="#000000" font-family="sans-serif" font-size="13" lengthAdjust="spacingAndGlyphs" textLength="75" x="131.5" y="220.0669">depends on</text><!--MD5=[a90ce78a29337a81fd2410ca732e308e]
link owncloud to owncloud-redis--><path d="M190.457,177.0303 C198.8229,186 208.0485,196.6091 215.5,207 C224.9588,220.19 233.8965,235.8969 240.8234,249.0868 " fill="none" id="owncloud-&gt;owncloud-redis" style="stroke: #A80036; stroke-width: 1.0; stroke-dasharray: 7.0,7.0;"/><polygon fill="#A80036" points="243.2817,253.8231,242.6858,243.9923,240.9783,249.3853,235.5853,247.6777,243.2817,253.8231" style="stroke: #A80036; stroke-width: 1.0;"/><text fill="#000000" font-family="sans-serif" font-size="13" lengthAdjust="spacingAndGlyphs" textLength="75" x="227.5" y="220.0669">depends on</text><!--MD5=[528075be7f4cd228d20309aac68e82c8]
@startuml
skinparam componentStyle uml2
[caddy]
[hass]
[owncloud]
[owncloud-db]
[owncloud-redis]
[portainer]
[caddy] ..> [hass] : depends on
[caddy] ..> [owncloud] : depends on
[caddy] ..> [portainer] : depends on
[owncloud] ..> [owncloud-db] : depends on
[owncloud] ..> [owncloud-redis] : depends on

@enduml

PlantUML version 1.2019.11(Sun Sep 22 10:02:15 GMT 2019)
(GPL source distribution)
Java Runtime: OpenJDK Runtime Environment
JVM: OpenJDK 64-Bit Server VM
Java Version: 14-ea+15
Operating System: Linux
Default Encoding: UTF-8
Language: en
Country: US
--></g></svg>